<?xml version="1.0" standalone="no"?>
<!DOCTYPE svg PUBLIC "-//W3C//DTD SVG 20010904//EN"
 "http://www.w3.org/TR/2001/REC-SVG-20010904/DTD/svg10.dtd">
<svg version="1.0" xmlns="http://www.w3.org/2000/svg"
 width="700.000000pt" height="700.000000pt" viewBox="0 0 700.000000 700.000000"
 preserveAspectRatio="xMidYMid meet">
<metadata>
Created by potrace 1.11, written by Peter Selinger 2001-2013
</metadata>
<g transform="translate(0.000000,700.000000) scale(0.100000,-0.100000)"
fill="#000000" stroke="none">
<path d="M3368 6195 c-2 -1 -41 -5 -88 -9 -104 -8 -143 -13 -245 -31 -118 -21
-133 -24 -215 -45 -761 -197 -1406 -728 -1750 -1442 -57 -118 -146 -346 -155
-398 -2 -13 -9 -36 -14 -50 -25 -65 -76 -345 -88 -480 -13 -152 -5 -540 12
-593 2 -6 6 -30 9 -52 14 -117 62 -315 108 -450 140 -412 353 -753 657 -1055
233 -231 465 -394 756 -530 149 -70 379 -154 479 -175 269 -55 296 -60 441
-72 149 -13 474 -6 561 11 12 2 45 7 75 11 221 27 521 122 774 246 459 223
833 561 1108 998 63 102 197 375 237 484 60 166 106 345 135 525 41 252 39
605 -4 847 -30 164 -31 168 -38 195 -3 14 -7 30 -8 35 -24 104 -124 386 -164
463 -5 9 -26 51 -46 92 -53 106 -160 284 -208 345 -4 6 -28 37 -53 70 -162
215 -390 432 -630 599 -45 31 -84 56 -87 56 -4 0 -22 11 -42 25 -53 35 -255
137 -355 178 -246 101 -530 171 -780 193 -71 6 -377 13 -382 9z m369 -1277
c44 -22 60 -87 33 -137 -9 -18 -158 -246 -190 -291 -16 -23 -174 -260 -185
-279 -6 -9 -77 -116 -158 -238 -81 -123 -148 -226 -150 -230 -2 -7 11 -9 88
-18 28 -3 61 -8 75 -10 14 -2 52 -6 85 -10 33 -3 78 -8 100 -10 22 -3 56 -7
75 -9 97 -12 133 -16 220 -26 52 -6 111 -13 131 -15 79 -9 126 -57 116 -119
-3 -20 -158 -262 -402 -630 -337 -508 -401 -600 -429 -611 -19 -8 -43 -13 -54
-10 -67 13 -105 85 -78 147 8 18 163 256 344 528 211 316 326 497 318 502 -6
3 -43 9 -81 13 -39 4 -81 8 -95 10 -14 2 -52 7 -85 10 -33 3 -71 8 -85 10 -23
4 -70 9 -175 20 -22 2 -53 6 -70 9 -16 2 -61 7 -100 11 -131 11 -146 17 -179
66 -16 26 -16 75 1 103 12 20 682 1031 690 1041 5 6 27 40 51 76 75 116 112
135 189 97z"/>
</g>
</svg>
