<svg xmlns="http://www.w3.org/2000/svg" xmlns:xlink="http://www.w3.org/1999/xlink" version="1.1" x="0px" y="0px" viewBox="0 0 100 100" enable-background="new 0 0 100 100" xml:space="preserve"><path d="M64.374,14.24c-4.441-1.789-9.293-2.77-14.375-2.77c-19.658,0-35.879,14.723-38.234,33.742  c-0.195,1.57-0.295,3.168-0.295,4.789c0,21.281,17.25,38.527,38.529,38.527c21.283,0,38.531-17.246,38.531-38.527  C88.53,33.799,78.536,19.936,64.374,14.24z M56.616,50.284l-10.985,16.56c-0.289,0.436-0.766,0.671-1.251,0.671  c-0.285,0-0.573-0.081-0.828-0.25c-0.69-0.458-0.879-1.389-0.421-2.079l9.631-14.518L41.217,49.35  c-0.519-0.06-0.97-0.384-1.19-0.857c-0.22-0.473-0.178-1.027,0.11-1.462l11.2-16.881c0.459-0.69,1.391-0.876,2.079-0.421  c0.69,0.458,0.879,1.389,0.421,2.079l-9.846,14.839l11.545,1.318c0.519,0.06,0.97,0.384,1.189,0.857  C56.946,49.295,56.905,49.85,56.616,50.284z"></path></svg>